<?xml version="1.0" encoding="iso-8859-1"?>
<!-- Generator: Adobe Illustrator 19.0.0, SVG Export Plug-In . SVG Version: 6.00 Build 0)  -->
<svg xmlns="http://www.w3.org/2000/svg" xmlns:xlink="http://www.w3.org/1999/xlink" version="1.1" id="Layer_1" x="0px" y="0px" viewBox="0 0 512 512" style="enable-background:new 0 0 512 512;" xml:space="preserve" width="512px" height="512px">
<g>
	<g>
		<polygon points="413.957,261.212 512,261.212 512,190.116   " fill="#FFFFFF"/>
	</g>
</g>
<g>
	<g>
		<path d="M420.132,45.107H91.868C41.211,45.108,0,86.321,0,136.977v124.236h361.59L508.846,154.43    c0.999-0.725,2.061-1.296,3.154-1.749v-15.705C512,86.32,470.789,45.107,420.132,45.107z M85.896,172.152    c-13.96,0-25.277-11.317-25.277-25.277c0-13.96,11.317-25.277,25.277-25.277c13.96,0,25.277,11.317,25.277,25.277    C111.174,160.836,99.857,172.152,85.896,172.152z M358.783,217.178c0,4.244-3.441,7.685-7.686,7.685H160.903    c-4.244,0-7.685-3.441-7.685-7.685V111.845c0-4.244,3.441-7.685,7.685-7.685h190.195c4.245,0,7.685,3.441,7.685,7.685V217.178z     M419.461,104.35c8.206,0,14.858,6.652,14.858,14.858c0,8.206-6.652,14.858-14.858,14.858s-14.858-6.652-14.858-14.858    C404.602,111.001,411.255,104.35,419.461,104.35z M381.034,142.775c0-8.205,6.652-14.858,14.858-14.858    s14.858,6.652,14.858,14.858s-6.652,14.858-14.858,14.858S381.034,150.982,381.034,142.775z M419.461,181.204    c-8.206,0-14.858-6.652-14.858-14.858c0-8.206,6.652-14.858,14.858-14.858s14.858,6.652,14.858,14.858    S427.667,181.204,419.461,181.204z M443.03,157.634c-8.206,0-14.858-6.652-14.858-14.858s6.652-14.858,14.858-14.858    s14.858,6.652,14.858,14.858S451.236,157.634,443.03,157.634z" fill="#FFFFFF"/>
	</g>
</g>
<g>
	<g>
		<path d="M385.694,281.706l-50.839,36.866v91.254c0,4.245-3.441,7.685-7.685,7.685H184.83c-4.244,0-7.685-3.44-7.685-7.685V313.44    c0-4.245,3.441-7.685,7.685-7.685h115.334l33.163-24.048H0v153.887c0,17.258,14.04,31.298,31.299,31.298h449.403    c17.258,0,31.298-14.04,31.298-31.298V281.706H385.694z M103.317,369.055l-2.032,0.002l0.002,2.031    c0.01,8.489-6.864,15.379-15.353,15.389c-0.006,0-0.013,0-0.019,0c-8.481,0-15.36-6.87-15.37-15.353l-0.002-2.032l-2.032,0.002    c-0.006,0-0.013,0-0.019,0c-8.481,0-15.36-6.87-15.37-15.353c-0.01-8.489,6.864-15.379,15.353-15.389l2.032-0.002l-0.002-2.032    c-0.01-8.489,6.864-15.379,15.353-15.389c0.006,0,0.013,0,0.019,0c8.481,0,15.36,6.87,15.37,15.353l0.002,2.033l2.032-0.002    c0.006,0,0.013,0,0.019,0c8.481,0,15.36,6.87,15.37,15.353C118.68,362.155,111.806,369.045,103.317,369.055z M398.294,370.415    c-0.016,0-0.032,0-0.048,0c-5.638,0-10.221-4.557-10.246-10.201l-0.056-12.275c-0.025-5.659,4.542-10.267,10.201-10.293    c0.016,0,0.032,0,0.048,0c5.638,0,10.221,4.557,10.246,10.201l0.056,12.275C408.521,365.781,403.953,370.389,398.294,370.415z" fill="#FFFFFF"/>
	</g>
</g>
<g>
</g>
<g>
</g>
<g>
</g>
<g>
</g>
<g>
</g>
<g>
</g>
<g>
</g>
<g>
</g>
<g>
</g>
<g>
</g>
<g>
</g>
<g>
</g>
<g>
</g>
<g>
</g>
<g>
</g>
</svg>
