<?xml version="1.0" encoding="iso-8859-1"?>
<!-- Generator: Adobe Illustrator 16.0.0, SVG Export Plug-In . SVG Version: 6.00 Build 0)  -->
<!DOCTYPE svg PUBLIC "-//W3C//DTD SVG 1.1//EN" "http://www.w3.org/Graphics/SVG/1.1/DTD/svg11.dtd">
<svg xmlns="http://www.w3.org/2000/svg" xmlns:xlink="http://www.w3.org/1999/xlink" version="1.1" id="Capa_1" x="0px" y="0px" width="512px" height="512px" viewBox="0 0 459.637 459.637" style="enable-background:new 0 0 459.637 459.637;" xml:space="preserve">
<g>
	<g>
		<path d="M358.783,166.89H239.697c4.506-32.38,32.361-57.394,65.963-57.394c5.098,0,9.227-4.13,9.227-9.225    c0-5.094-4.129-9.225-9.227-9.225c-43.789,0-79.944,33.26-84.559,75.843H100.852C45.241,166.889,0,212.13,0,267.739    s45.24,100.852,100.852,100.852c42.141,0,80.068-26.77,94.553-65.896h68.826c14.486,39.129,52.412,65.896,94.553,65.896    c55.611,0,100.854-45.241,100.854-100.852C459.635,212.131,414.395,166.89,358.783,166.89z M358.783,350.142    c-36.34,0-68.842-24.367-79.041-59.261c-1.146-3.935-4.756-6.638-8.854-6.638h-82.14c-4.1,0-7.707,2.703-8.855,6.638    c-10.197,34.894-42.701,59.261-79.041,59.261c-45.436,0-82.402-36.965-82.402-82.4c0-45.438,36.967-82.401,82.402-82.401h257.932    c45.436,0,82.4,36.964,82.4,82.401C441.186,313.177,404.219,350.142,358.783,350.142z" fill="#FFFFFF"/>
		<path d="M99.682,193.091c-41.16,0-74.648,33.487-74.648,74.65c0,41.162,33.488,74.648,74.648,74.648    c41.16,0,74.65-33.486,74.65-74.648C174.333,226.578,140.842,193.091,99.682,193.091z M99.682,323.94    c-30.99,0-56.199-25.211-56.199-56.199c0-30.99,25.209-56.2,56.199-56.2c30.99,0,56.199,25.21,56.199,56.2    C155.881,298.729,130.672,323.94,99.682,323.94z" fill="#FFFFFF"/>
		<path d="M130.046,252.858h-15.477v-15.48c0-2.549-2.062-4.613-4.613-4.613H89.409c-2.551,0-4.613,2.064-4.613,4.613v15.48H69.319    c-2.549,0-4.613,2.064-4.613,4.612v20.548c0,2.549,2.064,4.612,4.613,4.612h15.477v15.478c0,2.547,2.062,4.612,4.613,4.612h20.547    c2.551,0,4.613-2.065,4.613-4.612v-15.478h15.477c2.549,0,4.613-2.063,4.613-4.612v-20.548    C134.659,254.923,132.594,252.858,130.046,252.858z" fill="#FFFFFF"/>
		<path d="M359.953,193.091c-41.16,0-74.648,33.487-74.648,74.65c0,41.162,33.488,74.648,74.648,74.648s74.648-33.486,74.648-74.648    C434.602,226.578,401.113,193.091,359.953,193.091z M359.953,323.94c-30.988,0-56.201-25.211-56.201-56.199    c0-30.99,25.213-56.2,56.201-56.2s56.199,25.21,56.199,56.2C416.152,298.729,390.941,323.94,359.953,323.94z" fill="#FFFFFF"/>
		<circle cx="359.953" cy="233.639" r="15.531" fill="#FFFFFF"/>
		<path d="M394.059,252.215c-8.58,0-15.535,6.954-15.535,15.526c0,8.576,6.955,15.529,15.535,15.529    c8.576,0,15.531-6.953,15.531-15.529C409.59,259.169,402.635,252.215,394.059,252.215z" fill="#FFFFFF"/>
		<path d="M359.953,286.312c-8.57,0-15.529,6.954-15.529,15.534c0,8.581,6.959,15.531,15.529,15.531    c8.58,0,15.529-6.95,15.529-15.531C375.482,293.266,368.533,286.312,359.953,286.312z" fill="#FFFFFF"/>
		<path d="M325.852,252.215c-8.576,0-15.537,6.954-15.537,15.526c0,8.58,6.961,15.529,15.537,15.529    c8.58,0,15.529-6.949,15.529-15.529C341.381,259.169,334.432,252.215,325.852,252.215z" fill="#FFFFFF"/>
		<path d="M214.86,255.124h-23.125c-3.486,0-6.311,2.824-6.311,6.311c0,3.487,2.824,6.311,6.311,6.311h23.125    c3.486,0,6.311-2.823,6.311-6.311C221.171,257.948,218.346,255.124,214.86,255.124z" fill="#FFFFFF"/>
		<path d="M267.9,255.124h-23.125c-3.486,0-6.311,2.824-6.311,6.311c0,3.487,2.824,6.311,6.311,6.311H267.9    c3.486,0,6.311-2.823,6.311-6.311C274.211,257.948,271.387,255.124,267.9,255.124z" fill="#FFFFFF"/>
	</g>
</g>
<g>
</g>
<g>
</g>
<g>
</g>
<g>
</g>
<g>
</g>
<g>
</g>
<g>
</g>
<g>
</g>
<g>
</g>
<g>
</g>
<g>
</g>
<g>
</g>
<g>
</g>
<g>
</g>
<g>
</g>
</svg>
